<svg width="24" height="24" viewBox="0 0 24 24" fill="none" xmlns="http://www.w3.org/2000/svg">
<path d="M7.65594 18.8506C6.27213 18.8506 5.15039 20.0033 5.15039 21.4251C5.15039 22.847 6.27219 23.9997 7.65594 23.9997C9.03975 23.9997 10.1615 22.847 10.1615 21.4251C10.1615 20.0033 9.03975 18.8506 7.65594 18.8506ZM7.65594 22.8555C6.88717 22.8555 6.26398 22.2151 6.26398 21.4252C6.26398 20.6352 6.88717 19.9949 7.65594 19.9949C8.42471 19.9949 9.0479 20.6352 9.0479 21.4252C9.04795 22.2151 8.42471 22.8555 7.65594 22.8555Z" fill="white"/>
<path d="M7.65594 18.8506C6.27213 18.8506 5.15039 20.0033 5.15039 21.4251C5.15039 22.847 6.27219 23.9997 7.65594 23.9997C9.03975 23.9997 10.1615 22.847 10.1615 21.4251C10.1615 20.0033 9.03975 18.8506 7.65594 18.8506ZM7.65594 22.8555C6.88717 22.8555 6.26398 22.2151 6.26398 21.4252C6.26398 20.6352 6.88717 19.9949 7.65594 19.9949C8.42471 19.9949 9.0479 20.6352 9.0479 21.4252C9.04795 22.2151 8.42471 22.8555 7.65594 22.8555Z" stroke="white"/>
<path d="M18.235 18.8506C16.8512 18.8506 15.7295 20.0033 15.7295 21.4251C15.7295 22.847 16.8513 23.9997 18.235 23.9997C19.6188 23.9997 20.7406 22.847 20.7406 21.4251C20.7406 20.0033 19.6188 18.8506 18.235 18.8506ZM18.235 22.8555C17.4663 22.8555 16.8431 22.2151 16.8431 21.4252C16.8431 20.6352 17.4663 19.9949 18.235 19.9949C19.0038 19.9949 19.627 20.6352 19.627 21.4252C19.6271 22.2151 19.0038 22.8555 18.235 22.8555Z" fill="white"/>
<path d="M18.235 18.8506C16.8512 18.8506 15.7295 20.0033 15.7295 21.4251C15.7295 22.847 16.8513 23.9997 18.235 23.9997C19.6188 23.9997 20.7406 22.847 20.7406 21.4251C20.7406 20.0033 19.6188 18.8506 18.235 18.8506ZM18.235 22.8555C17.4663 22.8555 16.8431 22.2151 16.8431 21.4252C16.8431 20.6352 17.4663 19.9949 18.235 19.9949C19.0038 19.9949 19.627 20.6352 19.627 21.4252C19.6271 22.2151 19.0038 22.8555 18.235 22.8555Z" stroke="white"/>
<path d="M23.8865 3.83329C23.7705 3.70314 23.6119 3.62167 23.441 3.60442L5.3174 3.34697L4.81629 1.7736C4.46326 0.721826 3.50473 0.0117722 2.42205 0H0.556795C0.249276 0 0 0.256141 0 0.572128C0 0.888115 0.249276 1.14426 0.556795 1.14426H2.42205C3.02744 1.158 3.56053 1.55743 3.75838 2.14549L7.29402 13.1017L7.01565 13.7596C6.70515 14.5824 6.7984 15.5084 7.26621 16.2484C7.72954 16.9752 8.50902 17.4237 9.3542 17.4499H20.1839C20.4914 17.4499 20.7407 17.1937 20.7407 16.8777C20.7407 16.5618 20.4914 16.3056 20.1839 16.3056H9.35415C8.87686 16.2933 8.43751 16.0353 8.18487 15.619C7.93506 15.2078 7.88375 14.7013 8.04569 14.2459L8.26843 13.731L19.9889 12.4723C21.2764 12.3266 22.3354 11.3645 22.6337 10.0694L23.9701 4.31951C24.0303 4.15393 23.9983 3.96772 23.8865 3.83329ZM21.548 9.81197C21.3672 10.6457 20.6784 11.2606 19.8498 11.3281L8.26843 12.5582L5.67932 4.49122L22.745 4.74868L21.548 9.81197Z" fill="white"/>
<path d="M23.8865 3.83329C23.7705 3.70314 23.6119 3.62167 23.441 3.60442L5.3174 3.34697L4.81629 1.7736C4.46326 0.721826 3.50473 0.0117722 2.42205 0H0.556795C0.249276 0 0 0.256141 0 0.572128C0 0.888115 0.249276 1.14426 0.556795 1.14426H2.42205C3.02744 1.158 3.56053 1.55743 3.75838 2.14549L7.29402 13.1017L7.01565 13.7596C6.70515 14.5824 6.7984 15.5084 7.26621 16.2484C7.72954 16.9752 8.50902 17.4237 9.3542 17.4499H20.1839C20.4914 17.4499 20.7407 17.1937 20.7407 16.8777C20.7407 16.5618 20.4914 16.3056 20.1839 16.3056H9.35415C8.87686 16.2933 8.43751 16.0353 8.18487 15.619C7.93506 15.2078 7.88375 14.7013 8.04569 14.2459L8.26843 13.731L19.9889 12.4723C21.2764 12.3266 22.3354 11.3645 22.6337 10.0694L23.9701 4.31951C24.0303 4.15393 23.9983 3.96772 23.8865 3.83329ZM21.548 9.81197C21.3672 10.6457 20.6784 11.2606 19.8498 11.3281L8.26843 12.5582L5.67932 4.49122L22.745 4.74868L21.548 9.81197Z" stroke="white"/>
</svg>
