<svg width="16" height="13" viewBox="0 0 16 13" fill="none" xmlns="http://www.w3.org/2000/svg">
<path opacity="0.2" d="M7.76739 0C5.81425 0.00229377 3.94175 0.779195 2.56067 2.16028C1.17959 3.54136 0.402684 5.41386 0.400391 7.367V11.4116C0.400501 11.7051 0.481905 11.9929 0.635576 12.243C0.789248 12.493 1.00918 12.6956 1.27098 12.8283C1.53279 12.961 1.82623 13.0186 2.11876 12.9947C2.4113 12.9708 2.6915 12.8664 2.92828 12.6929C3.82244 12.0429 5.38829 11.2672 7.76739 11.2672C10.1465 11.2672 11.7116 12.0422 12.6065 12.6922C12.8432 12.8656 13.1234 12.9701 13.4158 12.994C13.7083 13.0179 14.0017 12.9604 14.2635 12.8278C14.5253 12.6952 14.7452 12.4927 14.8989 12.2427C15.0527 11.9927 15.1342 11.7051 15.1344 11.4116V7.367C15.1321 5.41386 14.3552 3.54136 12.9741 2.16028C11.593 0.779195 9.72054 0.00229377 7.76739 0ZM14.2677 7.367V8.26982C13.2688 7.6215 12.178 7.12724 11.032 6.80364C10.8121 4.68025 10.0261 2.65483 8.75616 0.938932C10.2904 1.17729 11.6889 1.95604 12.6995 3.13471C13.7101 4.31338 14.2663 5.81439 14.2677 7.367ZM10.1357 6.58841C8.57205 6.27832 6.96274 6.27832 5.39912 6.58841C5.76025 3.8164 7.14409 1.85114 7.76739 1.08916C8.3907 1.85258 9.77526 3.81712 10.1357 6.58914V6.58841ZM6.77863 0.938932C5.50852 2.65504 4.72255 4.68072 4.5028 6.80437C3.35677 7.12796 2.26598 7.62222 1.2671 8.27055V7.367C1.2685 5.81439 1.82466 4.31338 2.83527 3.13471C3.84589 1.95604 5.24442 1.17729 6.77863 0.938932ZM13.8755 12.0508C13.7554 12.1137 13.62 12.1413 13.4849 12.1304C13.3498 12.1196 13.2206 12.0707 13.1121 11.9894C12.1139 11.2672 10.3762 10.4005 7.76739 10.4005C5.15861 10.4005 3.41797 11.2672 2.42271 11.9894C2.31459 12.0703 2.18585 12.1189 2.05129 12.1298C1.91673 12.1407 1.78185 12.1133 1.66217 12.0508C1.5429 11.9922 1.44257 11.9011 1.3727 11.7881C1.30282 11.675 1.26622 11.5445 1.2671 11.4116V9.31709C3.16029 7.9536 5.43431 7.21995 7.76739 7.21995C10.1005 7.21995 12.3745 7.9536 14.2677 9.31709V11.4116C14.2694 11.5447 14.2335 11.6756 14.1641 11.7892C14.0947 11.9028 13.9947 11.9945 13.8755 12.0537V12.0508Z" fill="black"/>
</svg>
