<svg width="21" height="17" viewBox="0 0 21 17" fill="none" xmlns="http://www.w3.org/2000/svg">
<path opacity="0.2" d="M20.3584 8.10687L15.3415 0.630417C15.2113 0.436477 15.0349 0.27747 14.828 0.167499C14.6211 0.0575285 14.3901 -5.74716e-06 14.1555 4.30589e-10H6.84401C6.60937 -5.74716e-06 6.37835 0.0575285 6.17146 0.167499C5.96456 0.27747 5.78818 0.436477 5.65795 0.630417L0.641061 8.10687C0.584603 8.19109 0.546961 8.28635 0.530667 8.38623C0.514374 8.48612 0.519808 8.58832 0.546604 8.68594L2.54178 15.9561C2.62455 16.2549 2.80335 16.5186 3.05093 16.707C3.29851 16.8955 3.6013 16.9984 3.91318 17H6.22024C6.59837 17 6.96102 16.8507 7.2284 16.5851C7.49578 16.3194 7.646 15.9591 7.646 15.5833V14.1667H13.349V15.5833C13.349 15.9591 13.4993 16.3194 13.7666 16.5851C14.034 16.8507 14.3967 17 14.7748 17H17.0819C17.3945 16.9993 17.6983 16.8969 17.9468 16.7084C18.1953 16.5198 18.3747 16.2556 18.4577 15.9561L20.4529 8.68594C20.4797 8.58832 20.4851 8.48612 20.4688 8.38623C20.4525 8.28635 20.4149 8.19109 20.3584 8.10687ZM6.22024 12.75V3.34599L8.35888 4.5599V9.20833C8.35888 9.39619 8.43399 9.57636 8.56768 9.7092C8.70137 9.84204 8.88269 9.91667 9.07176 9.91667C9.26083 9.91667 9.44215 9.84204 9.57584 9.7092C9.70953 9.57636 9.78464 9.39619 9.78464 9.20833V5.36917L10.1411 5.57812C10.2494 5.64029 10.3724 5.67302 10.4975 5.67302C10.6227 5.67302 10.7456 5.64029 10.854 5.57812L11.2104 5.37359V8.5C11.2104 8.68786 11.2855 8.86803 11.4192 9.00087C11.5529 9.13371 11.7342 9.20833 11.9233 9.20833C12.1123 9.20833 12.2937 9.13371 12.4274 9.00087C12.5611 8.86803 12.6362 8.68786 12.6362 8.5V4.5599L14.7748 3.34599V12.75H6.22024ZM14.1555 1.41667L14.4709 1.88682L10.4975 4.14286L6.5241 1.88682L6.84401 1.41667H14.1555ZM6.22024 15.5833H3.91318L2.00355 8.62484L4.79448 4.46427V12.75C4.79448 13.1257 4.94469 13.4861 5.21207 13.7517C5.47946 14.0174 5.8421 14.1667 6.22024 14.1667V15.5833ZM17.0819 15.5833H14.7748V14.1667C15.1529 14.1667 15.5156 14.0174 15.783 13.7517C16.0503 13.4861 16.2006 13.1257 16.2006 12.75V4.46427L18.9915 8.62573L17.0819 15.5833Z" fill="black"/>
</svg>
