<svg width="14" height="14" viewBox="0 0 14 14" fill="none" xmlns="http://www.w3.org/2000/svg">
<path fill-rule="evenodd" clip-rule="evenodd" d="M6.62329 6.24658e-09C5.35587 -5.5029e-05 4.11505 0.363555 3.04812 1.04767C1.98119 1.73178 1.13295 2.70767 0.60411 3.85948C0.0752649 5.01129 -0.111982 6.29067 0.0645964 7.54572C0.241175 8.80078 0.774163 9.97882 1.60029 10.94L0.770292 11.77C0.722536 11.8161 0.684445 11.8713 0.658241 11.9323C0.632036 11.9933 0.618243 12.0589 0.617666 12.1253C0.617089 12.1917 0.62974 12.2575 0.654881 12.319C0.680021 12.3804 0.717148 12.4363 0.764094 12.4832C0.81104 12.5301 0.866866 12.5673 0.928315 12.5924C0.989763 12.6176 1.0556 12.6302 1.12199 12.6296C1.18838 12.629 1.25399 12.6153 1.31499 12.5891C1.376 12.5628 1.43117 12.5248 1.47729 12.477L2.30729 11.647C3.5738 12.7365 5.20524 13.307 6.87468 13.2444C8.54412 13.1818 10.1282 12.4905 11.3095 11.3092C12.4908 10.1279 13.182 8.54382 13.2447 6.87438C13.3073 5.20495 12.7367 3.57351 11.6473 2.307L12.4773 1.477C12.5238 1.43051 12.5607 1.37532 12.5858 1.31458C12.611 1.25384 12.6239 1.18874 12.6239 1.123C12.6239 1.05726 12.611 0.992156 12.5858 0.931417C12.5607 0.870677 12.5238 0.815488 12.4773 0.769C12.4308 0.722512 12.3756 0.685636 12.3149 0.660477C12.2541 0.635318 12.189 0.622368 12.1233 0.622368C12.0575 0.622368 11.9924 0.635318 11.9317 0.660477C11.871 0.685636 11.8158 0.722512 11.7693 0.769L10.9393 1.599C9.7391 0.565497 8.20714 -0.00171118 6.62329 0.00100005V6.24658e-09ZM10.2653 2.274C9.17822 1.36264 7.78915 0.891622 6.37196 0.953806C4.95477 1.01599 3.6123 1.60687 2.60923 2.60994C1.60616 3.61301 1.01528 4.95548 0.953097 6.37267C0.890913 7.78986 1.36193 9.17893 2.27329 10.266L10.2653 2.274ZM2.98129 10.972C4.06836 11.8834 5.45743 12.3544 6.87462 12.2922C8.29181 12.23 9.63429 11.6391 10.6374 10.6361C11.6404 9.63299 12.2313 8.29052 12.2935 6.87333C12.3557 5.45614 11.8847 4.06707 10.9733 2.98L2.98029 10.973L2.98129 10.972Z" fill="black"/>
</svg>
