<svg width="14" height="16" viewBox="0 0 14 16" fill="none" xmlns="http://www.w3.org/2000/svg">
<path opacity="0.2" d="M7 1C7.66304 1 8.29893 1.26339 8.76777 1.73223C9.23661 2.20107 9.5 2.83696 9.5 3.5V4H4.5V3.5C4.5 2.83696 4.76339 2.20107 5.23223 1.73223C5.70107 1.26339 6.33696 1 7 1ZM10.5 4V3.5C10.5 2.57174 10.1313 1.6815 9.47487 1.02513C8.8185 0.368749 7.92826 0 7 0C6.07174 0 5.1815 0.368749 4.52513 1.02513C3.86875 1.6815 3.5 2.57174 3.5 3.5V4H0V14C0 14.5304 0.210714 15.0391 0.585786 15.4142C0.960859 15.7893 1.46957 16 2 16H12C12.5304 16 13.0391 15.7893 13.4142 15.4142C13.7893 15.0391 14 14.5304 14 14V4H10.5ZM1 5H13V14C13 14.2652 12.8946 14.5196 12.7071 14.7071C12.5196 14.8946 12.2652 15 12 15H2C1.73478 15 1.48043 14.8946 1.29289 14.7071C1.10536 14.5196 1 14.2652 1 14V5Z" fill="black"/>
</svg>
