<svg width="20" height="18" viewBox="0 0 20 18" fill="none" xmlns="http://www.w3.org/2000/svg">
<path opacity="0.2" d="M12.3008 1C12.3008 1 11.4058 1.30769 10.0002 1.30769C8.59455 1.30769 7.69962 1 7.69962 1C7.55821 1 7.41782 1.02341 7.28437 1.06923L1.2002 3.15385L1.85352 6.53846L3.7738 6.75077C4.00897 6.77682 4.22552 6.88851 4.38047 7.06365C4.53541 7.23878 4.61742 7.46456 4.6102 7.69615L4.34305 17H15.6573L15.3902 7.69615C15.383 7.46456 15.465 7.23878 15.6199 7.06365C15.7749 6.88851 15.9914 6.77682 16.2266 6.75077L18.1469 6.53846L18.8002 3.15385L12.716 1.06923C12.5826 1.02341 12.4422 1 12.3008 1Z" stroke="black" stroke-width="1.37143" stroke-linecap="round" stroke-linejoin="round"/>
</svg>
