<svg width="164" height="32" viewBox="0 0 164 32" fill="none" xmlns="http://www.w3.org/2000/svg">
<g clip-path="url(#clip0_8910_4348)">
<path d="M94.0801 11.0627C93.2155 10.1703 92.1781 9.90255 91.0541 9.90255C89.5844 9.90255 88.8063 10.3488 88.8063 11.152C88.8063 11.9552 89.4979 12.4014 91.0541 12.5799C93.3884 12.7584 96.2415 13.2938 96.2415 16.5959C96.2415 18.827 94.5123 20.7011 90.9677 20.7011C89.0657 20.7011 87.0772 20.3441 85.3481 18.47L86.8178 16.2388C87.6824 17.2205 89.6709 18.0237 91.0541 18.0237C92.1781 18.0237 93.302 17.399 93.302 16.5066C93.302 15.6141 92.6103 15.2572 90.8812 15.168C88.5469 14.9894 85.8669 14.097 85.8669 11.2413C85.8669 8.29615 88.8063 7.31445 90.9677 7.31445C92.8697 7.31445 94.3394 7.67145 95.7227 9.01011L94.0801 11.0627Z" fill="white"/>
<path d="M108.692 18.6489C107.308 20.0768 105.752 20.6122 104.023 20.6122C100.478 20.6122 97.5386 18.3811 97.5386 13.9189C97.5386 9.45669 100.478 7.22559 104.023 7.22559C105.752 7.22559 107.135 7.76103 108.432 9.09969L106.53 11.1523C105.839 10.4384 104.888 10.1706 104.109 10.1706C102.034 10.1706 100.565 11.6878 100.565 13.9189C100.565 16.3285 102.121 17.5779 104.023 17.5779C104.974 17.5779 105.925 17.3101 106.703 16.5069L108.692 18.6489Z" fill="white"/>
<path d="M112.756 14.008C112.756 15.9713 113.88 17.667 116.041 17.667C118.202 17.667 119.326 15.8821 119.326 14.008C119.326 12.1339 118.029 10.2597 116.041 10.2597C113.88 10.2597 112.756 12.1339 112.756 14.008ZM122.352 14.008C122.352 17.667 119.931 20.5227 116.041 20.5227C112.151 20.5227 109.73 17.5777 109.73 14.008C109.73 10.4382 112.151 7.49316 116.041 7.49316C119.931 7.49316 122.352 10.3489 122.352 14.008Z" fill="white"/>
<path d="M43.5923 14.008C43.5923 15.9713 44.7162 17.667 46.8776 17.667C49.039 17.667 50.1629 15.8821 50.1629 14.008C50.1629 12.1339 48.8661 10.2597 46.8776 10.2597C44.7162 10.2597 43.5923 12.1339 43.5923 14.008ZM53.2753 14.008C53.2753 17.667 50.8545 20.5227 46.9641 20.5227C43.0736 20.5227 40.6528 17.5777 40.6528 14.008C40.6528 10.4382 43.0736 7.49316 46.9641 7.49316C50.8545 7.49316 53.2753 10.3489 53.2753 14.008Z" fill="white"/>
<path d="M62.2646 17.5777C60.1896 17.5777 58.8063 15.9713 58.8063 14.0079C58.8063 12.0445 60.1032 10.4382 62.2646 10.4382C64.4259 10.4382 65.7228 12.0445 65.7228 14.0079C65.7228 15.9713 64.3395 17.5777 62.2646 17.5777ZM62.5239 7.40381C61.1406 7.40381 59.498 8.02856 58.547 9.45647V7.67159L55.521 8.38553V25.5204H58.547V18.8271C59.4115 20.2551 61.3135 20.612 62.6104 20.612C66.5009 20.612 68.7487 17.6669 68.7487 14.0079C68.7487 10.2596 66.2415 7.40381 62.5239 7.40381Z" fill="white"/>
<path d="M76.9632 17.7562C74.9747 17.7562 73.3321 16.3282 73.3321 13.9186C73.3321 11.509 74.9747 10.0811 76.9632 10.0811C81.7183 10.1704 81.7183 17.7562 76.9632 17.7562ZM80.5943 7.67159V9.45647C79.9027 8.20705 78.3465 7.40381 76.7038 7.40381C73.1592 7.40381 70.3926 9.63494 70.3926 14.0079C70.3926 18.3809 73.0727 20.7012 76.7038 20.7012C78.0871 20.7012 79.9891 19.9873 80.6808 18.4701L80.8537 20.3442H83.7067V8.38553L80.5943 7.67159Z" fill="white"/>
<path d="M131.256 17.5777C129.181 17.5777 127.798 15.9713 127.798 14.0079C127.798 12.0445 129.095 10.4382 131.256 10.4382C133.418 10.4382 134.714 12.0445 134.714 14.0079C134.714 15.9713 133.245 17.5777 131.256 17.5777ZM131.429 7.40381C130.046 7.40381 128.403 8.02856 127.452 9.45647V7.67159L124.426 8.38553V25.5204H127.452V18.8271C128.317 20.2551 130.219 20.612 131.516 20.612C135.406 20.612 137.654 17.6669 137.654 14.0079C137.74 10.2596 135.233 7.40381 131.429 7.40381Z" fill="white"/>
<path d="M145.866 9.63477C147.163 9.63477 148.287 10.3488 148.806 11.4196L142.062 13.6508C142.149 11.4196 143.791 9.63477 145.866 9.63477ZM146.126 18.2023C144.483 18.2023 143.273 17.3991 142.667 16.1496L142.581 16.0604L151.918 12.9368C151.486 9.4563 149.065 7.31445 145.953 7.31445C142.235 7.31445 139.382 10.2595 139.382 14.0078C139.382 17.756 142.149 20.6119 146.039 20.6119C148.114 20.6119 150.016 19.8087 151.572 18.3808L150.448 16.1496C149.065 17.5776 147.595 18.2023 146.126 18.2023Z" fill="white"/>
<path d="M1.91764 30.1254H14.0214V17.6313H1.91764V30.1254ZM14.9724 31.9996H0.966634C0.447901 31.9996 0.015625 31.5533 0.015625 31.0179V16.5603C0.015625 16.0249 0.447901 15.5786 0.966634 15.5786H14.9724C15.4911 15.5786 15.9234 16.0249 15.9234 16.5603V31.0179C15.9234 31.6426 15.4911 31.9996 14.9724 31.9996Z" fill="white"/>
<path d="M9.00992 22.8078H28.203V2.99561H9.00992V22.8078ZM29.154 24.7712H8.05891C7.54018 24.7712 7.10791 24.3249 7.10791 23.7895V2.01389C7.10791 1.47843 7.54018 1.03223 8.05891 1.03223H29.154C29.6728 1.03223 30.1051 1.47843 30.1051 2.01389V23.7895C30.0186 24.3249 29.6728 24.7712 29.154 24.7712Z" fill="white"/>
<path d="M0.968035 17.6313C0.795124 17.6313 0.708669 17.6313 0.535758 17.542C0.103482 17.2743 -0.155884 16.7388 0.103482 16.2925L7.19281 1.65656C7.45218 1.21033 7.97091 0.942603 8.40319 1.21033C8.83547 1.47807 9.09483 2.0135 8.83547 2.45972L1.74613 17.0957C1.65968 17.4528 1.31386 17.6313 0.968035 17.6313Z" fill="white"/>
<path d="M14.9759 17.6317C14.7165 17.6317 14.4572 17.5424 14.2843 17.3639C13.9384 17.0069 13.9384 16.3822 14.2843 16.0253L28.4629 1.29996C28.8088 0.942981 29.4139 0.942981 29.7598 1.29996C30.1056 1.65694 30.1056 2.28164 29.7598 2.63863L15.6676 17.3639C15.4082 17.5424 15.2353 17.6317 14.9759 17.6317Z" fill="white"/>
<path d="M14.9739 32.0003C14.6281 32.0003 14.2823 31.8217 14.1093 31.4648C13.85 31.0185 14.1093 30.3939 14.5416 30.2155L28.7203 22.8974C29.1526 22.6296 29.7578 22.8974 29.9307 23.3436C30.19 23.7899 29.9307 24.4145 29.4984 24.5929L15.3197 31.911C15.2333 32.0002 15.1468 32.0003 14.9739 32.0003Z" fill="white"/>
<path d="M160.231 0L161.252 2.95582L162.284 0H163.42V4.12903H162.687V0.797331L161.578 4.12903H160.938L159.823 0.797331V4.12903H159.089V0H160.231ZM155.001 0.689121V0H158.411V0.689121H157.103V4.12903H156.309V0.689121H155.001Z" fill="white"/>
</g>
<defs>
<clipPath id="clip0_8910_4348">
<rect width="164" height="32" fill="white"/>
</clipPath>
</defs>
</svg>
