<svg width="185" height="40" viewBox="0 0 185 40" fill="none" xmlns="http://www.w3.org/2000/svg">
<path d="M19.529 39.9993H1.22056C0.537048 39.9993 0 39.4531 0 38.7579V20.136C0 19.4408 0.537048 18.8945 1.22056 18.8945H19.529C20.2125 18.8945 20.7496 19.4408 20.7496 20.136V38.7579C20.7496 39.4531 20.2125 39.9993 19.529 39.9993ZM2.44113 37.5164H18.3085V21.3774H2.44113V37.5164Z" fill="#11151C"/>
<path d="M38.0817 30.5648H10.4969C9.81342 30.5648 9.27637 30.0185 9.27637 29.3233V1.26636C9.27637 0.571144 9.81342 0.0249023 10.4969 0.0249023H38.0817C38.7652 0.0249023 39.3022 0.571144 39.3022 1.26636V29.3233C39.3022 30.0185 38.7652 30.5648 38.0817 30.5648ZM11.7175 28.0818H36.8611V2.50782H11.7175V28.0818Z" fill="#11151C"/>
<path d="M1.22169 21.3804C1.0264 21.3804 0.855524 21.3308 0.684645 21.2563C0.0743634 20.9584 -0.169749 20.2135 0.147597 19.5928L9.42388 0.722593C9.71682 0.101864 10.4492 -0.146431 11.0594 0.176348C11.6697 0.474298 11.9138 1.21918 11.5965 1.8399L2.3202 20.7101C2.1005 21.1322 1.6611 21.3804 1.22169 21.3804Z" fill="#11151C"/>
<path d="M19.5296 21.3779C19.2123 21.3779 18.895 21.2537 18.6753 21.0055C18.187 20.5089 18.187 19.7392 18.6753 19.2426L37.2278 0.372437C37.7161 -0.124146 38.4728 -0.124146 38.961 0.372437C39.4493 0.86902 39.4493 1.63872 38.961 2.1353L20.4085 21.0055C20.1643 21.2537 19.847 21.3779 19.5296 21.3779Z" fill="#11151C"/>
<path d="M19.5283 39.9997C19.0889 39.9997 18.6495 39.7514 18.4298 39.3045C18.1369 38.6837 18.381 37.9389 18.9668 37.6409L37.5194 28.2058C38.1297 27.9079 38.862 28.1562 39.155 28.7521C39.4479 29.3728 39.2038 30.1177 38.6179 30.4156L20.0653 39.8507C19.8945 39.95 19.7236 39.9997 19.5283 39.9997Z" fill="#11151C"/>
<path d="M122.699 12.7984C121.569 11.7067 120.269 11.362 118.772 11.362C116.908 11.362 115.863 11.9653 115.863 12.9708C115.863 14.0338 116.795 14.6084 118.829 14.7521C121.823 14.9532 125.636 15.6427 125.636 19.9234C125.636 22.7677 123.348 25.2385 118.801 25.2385C116.287 25.2385 113.773 24.8075 111.457 22.3655L113.377 19.5212C114.507 20.8141 117.078 21.7621 118.857 21.7909C120.326 21.8196 121.738 21.0439 121.738 19.866C121.738 18.7455 120.834 18.2858 118.575 18.1709C115.581 17.8836 111.993 16.7632 111.993 13.0857C111.993 9.35087 115.807 8.0293 118.688 8.0293C121.173 8.0293 123.038 8.5177 124.874 10.1553L122.699 12.7984Z" fill="#11151C"/>
<path d="M154.524 16.4178C154.524 21.0721 151.389 24.8357 146.248 24.8357C141.107 24.8357 138 21.0721 138 16.4178C138 11.7923 141.164 8 146.22 8C151.276 8 154.524 11.7923 154.524 16.4178ZM141.926 16.4178C141.926 18.8886 143.367 21.1582 146.248 21.1582C149.129 21.1582 150.57 18.8599 150.57 16.4178C150.57 14.0045 148.903 11.62 146.248 11.62C143.395 11.6487 141.926 14.0045 141.926 16.4178Z" fill="#11151C"/>
<path d="M69.5243 16.5926C69.5243 21.2469 66.3889 25.0105 61.248 25.0105C56.1071 25.0105 53 21.2469 53 16.5926C53 11.9671 56.1636 8.1748 61.2198 8.1748C66.2759 8.1748 69.5243 11.9671 69.5243 16.5926ZM56.9263 16.5926C56.9263 19.0634 58.3669 21.3331 61.248 21.3331C64.1292 21.3331 65.5697 19.0347 65.5697 16.5926C65.5697 14.1793 63.9032 11.7948 61.248 11.7948C58.3951 11.8235 56.9263 14.1793 56.9263 16.5926Z" fill="#11151C"/>
<path d="M81.5715 8.14355C79.7637 8.14355 77.6452 8.91926 76.4024 10.7292V8.48831L72.4761 9.35021V31.4147H76.4024V22.767C77.5322 24.5483 80.0179 25.0654 81.6845 25.0654C86.7689 25.0654 89.7065 21.3305 89.7065 16.6188C89.7348 11.8497 86.4581 8.14355 81.5715 8.14355ZM81.289 21.1869C78.6056 21.1869 76.7696 19.1183 76.7696 16.5901C76.7696 14.0619 78.4361 11.9933 81.289 11.9933C84.1419 11.9933 85.8085 14.0619 85.8085 16.5901C85.7802 19.1183 83.9442 21.1869 81.289 21.1869Z" fill="#11151C"/>
<path d="M105.101 8.48796V10.7289C104.197 9.12001 102.163 8.11447 100.045 8.11447C95.4124 8.08574 91.7686 10.9874 91.7686 16.561C91.7686 22.2208 95.2429 25.18 99.9601 25.1512C101.74 25.1225 104.225 24.2032 105.129 22.307L105.327 24.6628H109.027V9.34985L105.101 8.48796ZM100.384 21.4738C97.7851 21.4738 95.6666 19.6351 95.6666 16.561C95.6666 13.4869 97.7568 11.677 100.384 11.677C106.598 11.677 106.598 21.4738 100.384 21.4738Z" fill="#11151C"/>
<path d="M176.728 22.0489C174.581 22.0489 173 20.9859 172.18 19.377L172.124 19.2334L184.298 15.2112C183.79 10.7006 180.57 8 176.53 8C171.7 8 168 11.7636 168 16.5615C168 21.3594 171.644 25.0942 176.672 25.0942C179.355 25.0942 181.869 24.0312 183.846 22.2213L182.406 19.3483C180.598 21.2157 178.705 22.0489 176.728 22.0489ZM176.474 11.0741C178.169 11.0741 179.609 11.936 180.259 13.3725L171.503 16.2742C171.616 13.3437 173.734 11.0741 176.474 11.0741Z" fill="#11151C"/>
<path d="M135.858 22.0326V24.9242L134.025 24.9921C132.197 25.0554 130.948 24.7387 130.279 24.0418C129.844 23.5983 129.627 22.915 129.627 21.9919V12.8828H127.563V10.1269H129.627V6H133.455V10.1269H135.858V12.8828H133.455V20.7022C133.455 21.3086 133.532 21.6887 133.686 21.8426C133.84 21.9874 134.31 22.0598 135.098 22.0598C135.216 22.0598 135.338 22.0598 135.464 22.0598C135.6 22.0507 135.731 22.0417 135.858 22.0326Z" fill="#11151C"/>
<path d="M164.9 12.1434C163.256 12.1434 162.152 12.6786 161.588 13.7491C161.272 14.3513 161.115 15.2784 161.115 16.5305V24H157V8.37276H160.9V11.0968C161.53 10.055 162.08 9.34289 162.548 8.96057C163.313 8.32019 164.307 8 165.53 8C165.607 8 165.669 8.00478 165.717 8.01434C165.774 8.01434 165.894 8.01912 166.075 8.02867V12.2151C165.817 12.1864 165.588 12.1673 165.387 12.1577C165.186 12.1481 165.024 12.1434 164.9 12.1434Z" fill="#11151C"/>
</svg>
