<svg width="48" height="48" viewBox="0 0 48 48" fill="none" xmlns="http://www.w3.org/2000/svg">
<rect width="48" height="48" fill="#11151C"/>
<path d="M19.6559 30.8508C18.2721 30.8508 17.1504 32.0035 17.1504 33.4254C17.1504 34.8473 18.2722 35.9999 19.6559 35.9999C21.0397 35.9999 22.1615 34.8472 22.1615 33.4254C22.1615 32.0035 21.0397 30.8508 19.6559 30.8508ZM19.6559 34.8557C18.8872 34.8557 18.264 34.2154 18.264 33.4254C18.264 32.6355 18.8872 31.9951 19.6559 31.9951C20.4247 31.9951 21.0479 32.6355 21.0479 33.4254C21.048 34.2154 20.4247 34.8557 19.6559 34.8557Z" fill="white"/>
<path d="M19.6559 30.8508C18.2721 30.8508 17.1504 32.0035 17.1504 33.4254C17.1504 34.8473 18.2722 35.9999 19.6559 35.9999C21.0397 35.9999 22.1615 34.8472 22.1615 33.4254C22.1615 32.0035 21.0397 30.8508 19.6559 30.8508ZM19.6559 34.8557C18.8872 34.8557 18.264 34.2154 18.264 33.4254C18.264 32.6355 18.8872 31.9951 19.6559 31.9951C20.4247 31.9951 21.0479 32.6355 21.0479 33.4254C21.048 34.2154 20.4247 34.8557 19.6559 34.8557Z" stroke="white"/>
<path d="M30.235 30.8508C28.8512 30.8508 27.7295 32.0035 27.7295 33.4254C27.7295 34.8473 28.8513 35.9999 30.235 35.9999C31.6188 35.9999 32.7406 34.8472 32.7406 33.4254C32.7406 32.0035 31.6188 30.8508 30.235 30.8508ZM30.235 34.8557C29.4663 34.8557 28.8431 34.2154 28.8431 33.4254C28.8431 32.6355 29.4663 31.9951 30.235 31.9951C31.0038 31.9951 31.627 32.6355 31.627 33.4254C31.6271 34.2154 31.0038 34.8557 30.235 34.8557Z" fill="white"/>
<path d="M30.235 30.8508C28.8512 30.8508 27.7295 32.0035 27.7295 33.4254C27.7295 34.8473 28.8513 35.9999 30.235 35.9999C31.6188 35.9999 32.7406 34.8472 32.7406 33.4254C32.7406 32.0035 31.6188 30.8508 30.235 30.8508ZM30.235 34.8557C29.4663 34.8557 28.8431 34.2154 28.8431 33.4254C28.8431 32.6355 29.4663 31.9951 30.235 31.9951C31.0038 31.9951 31.627 32.6355 31.627 33.4254C31.6271 34.2154 31.0038 34.8557 30.235 34.8557Z" stroke="white"/>
<path d="M35.8865 15.8333C35.7705 15.7031 35.6119 15.6217 35.441 15.6044L17.3174 15.347L16.8163 13.7736C16.4633 12.7218 15.5047 12.0118 14.4221 12H12.5568C12.2493 12 12 12.2561 12 12.5721C12 12.8881 12.2493 13.1443 12.5568 13.1443H14.4221C15.0274 13.158 15.5605 13.5574 15.7584 14.1455L19.294 25.1017L19.0157 25.7596C18.7051 26.5824 18.7984 27.5084 19.2662 28.2484C19.7295 28.9752 20.509 29.4237 21.3542 29.4499H32.1839C32.4914 29.4499 32.7407 29.1937 32.7407 28.8777C32.7407 28.5618 32.4914 28.3056 32.1839 28.3056H21.3541C20.8769 28.2933 20.4375 28.0353 20.1849 27.619C19.9351 27.2078 19.8837 26.7013 20.0457 26.2459L20.2684 25.731L31.9889 24.4723C33.2764 24.3266 34.3354 23.3645 34.6337 22.0694L35.9701 16.3195C36.0303 16.1539 35.9983 15.9677 35.8865 15.8333ZM33.548 21.812C33.3672 22.6457 32.6784 23.2606 31.8498 23.3281L20.2684 24.5582L17.6793 16.4912L34.745 16.7487L33.548 21.812Z" fill="white"/>
<path d="M35.8865 15.8333C35.7705 15.7031 35.6119 15.6217 35.441 15.6044L17.3174 15.347L16.8163 13.7736C16.4633 12.7218 15.5047 12.0118 14.4221 12H12.5568C12.2493 12 12 12.2561 12 12.5721C12 12.8881 12.2493 13.1443 12.5568 13.1443H14.4221C15.0274 13.158 15.5605 13.5574 15.7584 14.1455L19.294 25.1017L19.0157 25.7596C18.7051 26.5824 18.7984 27.5084 19.2662 28.2484C19.7295 28.9752 20.509 29.4237 21.3542 29.4499H32.1839C32.4914 29.4499 32.7407 29.1937 32.7407 28.8777C32.7407 28.5618 32.4914 28.3056 32.1839 28.3056H21.3541C20.8769 28.2933 20.4375 28.0353 20.1849 27.619C19.9351 27.2078 19.8837 26.7013 20.0457 26.2459L20.2684 25.731L31.9889 24.4723C33.2764 24.3266 34.3354 23.3645 34.6337 22.0694L35.9701 16.3195C36.0303 16.1539 35.9983 15.9677 35.8865 15.8333ZM33.548 21.812C33.3672 22.6457 32.6784 23.2606 31.8498 23.3281L20.2684 24.5582L17.6793 16.4912L34.745 16.7487L33.548 21.812Z" stroke="white"/>
</svg>
